<svg width="301" height="436" viewBox="0 0 301 436" fill="none" xmlns="http://www.w3.org/2000/svg">
<path d="M206.547 148.888C206.547 148.888 190.887 134.314 184.907 138.436C184.907 138.436 177.077 156.133 173.473 157.501C171.983 161.841 169.832 165.972 166.842 165.831C166.513 167.288 166.545 168.804 166.936 170.246C167.578 172.887 161.465 184.452 157.389 183.32C153.314 182.188 147.494 171.859 149.192 166.038C149.299 165.644 149.384 165.244 149.447 164.84C149.23 164.416 142.051 150.822 141.324 143.728C140.579 136.521 137.466 139.643 137.466 139.643C137.466 139.643 141.598 143.285 135.155 146.153C128.702 149.03 112.694 151.275 119.071 145.313C119.071 145.313 118.137 142.521 115.015 145.068C115.015 145.068 112.76 148.039 118.194 158.142C118.194 158.142 126.608 201.432 125.108 212.271C125.108 212.271 122.741 239.826 125.41 242.449C126.684 243.703 143.079 248.373 159.295 247.901C169.603 247.656 179.831 246.016 189.699 243.024L188.727 205.074C188.517 196.994 190.002 188.961 193.085 181.49L206.547 148.888ZM154.107 230.714C150.811 230.035 147.733 228.554 145.145 226.403C142.576 224.23 140.564 221.474 139.277 218.365C137.985 215.337 137.367 212.063 137.466 208.772C138.091 211.894 139.148 214.913 140.607 217.743C142.026 220.505 143.979 222.958 146.352 224.959C147.519 225.966 148.805 226.825 150.182 227.516C150.852 227.912 151.579 228.186 152.277 228.516C153.012 228.761 153.729 229.091 154.484 229.289C157.547 230.178 160.697 230.732 163.88 230.94C160.637 231.482 157.321 231.405 154.107 230.714Z" fill="black"/>
<path d="M175.87 148.341L175.822 148.36C176.143 142.436 173.134 129.654 173.134 129.654C173.134 129.654 157.088 130.437 154.909 129.87C154.909 129.87 150.126 129.776 150.588 144.209C150.588 144.209 145.569 139.408 146.711 145.436C146.918 146.53 147.135 147.483 147.362 148.303C137.787 142.172 149.333 116.852 149.381 119.06C149.457 119.745 149.771 120.383 150.267 120.862C152.248 123.088 155.333 120.654 158.097 119.692C158.654 119.494 159.191 119.324 159.72 119.173C161.793 118.589 163.973 118.484 166.093 118.868C168.214 119.253 170.218 120.115 171.955 121.39C173.692 122.665 175.116 124.319 176.118 126.226C177.12 128.134 177.674 130.245 177.737 132.399C177.934 137.777 177.304 143.154 175.87 148.341Z" fill="black"/>
<path d="M156.936 162.847C155.442 162.03 154.122 160.931 153.048 159.61C152.507 158.945 152.048 158.218 151.68 157.444C151.32 156.665 151.117 155.824 151.083 154.967C151.343 155.753 151.684 156.509 152.101 157.225C152.528 157.923 153.002 158.592 153.52 159.227C154.588 160.498 155.729 161.707 156.936 162.847Z" fill="black"/>
<path d="M161.606 164.708C162.022 164.855 162.458 164.939 162.899 164.955C163.333 164.998 163.766 165.057 164.204 165.113C164.638 165.187 165.078 165.257 165.517 165.369C165.975 165.473 166.419 165.628 166.842 165.831C165.946 166.123 164.993 166.197 164.063 166.045C163.595 165.977 163.137 165.848 162.703 165.662C162.465 165.586 162.245 165.462 162.056 165.298C161.868 165.134 161.715 164.933 161.606 164.708Z" fill="black"/>
<path d="M175.883 148.364C175.876 148.8 175.843 149.236 175.782 149.668C175.71 150.109 175.605 150.518 175.514 150.944L174.933 153.476C174.537 155.168 174.055 156.839 173.487 158.482C172.936 160.155 172.2 161.762 171.292 163.271C170.818 164.053 170.218 164.752 169.515 165.338C168.763 165.977 167.806 166.324 166.819 166.315L167.306 165.971C167.087 167.034 167.068 168.128 167.252 169.196C167.298 169.468 167.349 169.739 167.413 170.007C167.452 170.175 167.48 170.346 167.496 170.518C167.505 170.687 167.502 170.855 167.488 171.023C167.426 171.638 167.299 172.244 167.109 172.831C166.357 175.074 165.286 177.196 163.931 179.135C163.271 180.122 162.512 181.04 161.666 181.874C160.817 182.79 159.721 183.444 158.51 183.755C158.177 183.819 157.835 183.817 157.503 183.747C157.19 183.669 156.887 183.557 156.598 183.413C156.057 183.133 155.556 182.782 155.106 182.37C154.227 181.58 153.449 180.684 152.791 179.702C151.458 177.783 150.402 175.686 149.654 173.473C149.277 172.367 149.005 171.229 148.841 170.073C148.646 168.91 148.658 167.722 148.875 166.563C149.352 164.308 149.708 162.029 149.941 159.736C150.21 157.445 150.461 155.151 150.691 152.854L151.131 153.273C150.727 153.35 150.309 153.326 149.916 153.203C149.529 153.069 149.178 152.848 148.89 152.557C148.378 152.011 147.972 151.375 147.692 150.681C147.155 149.372 146.745 148.015 146.466 146.627C146.275 145.939 146.133 145.238 146.041 144.529C145.994 144.144 145.99 143.755 146.03 143.37C146.044 143.119 146.111 142.875 146.227 142.653C146.343 142.43 146.504 142.235 146.701 142.08C146.923 141.947 147.171 141.867 147.428 141.845C147.685 141.823 147.944 141.859 148.184 141.952C148.556 142.077 148.912 142.246 149.245 142.454C149.869 142.841 150.453 143.288 150.991 143.788L150.005 144.228C149.984 142.889 149.936 141.55 150.003 140.204C150.041 138.852 150.166 137.504 150.379 136.168C150.578 134.795 150.968 133.457 151.54 132.194C151.696 131.875 151.88 131.563 152.062 131.252C152.267 130.942 152.499 130.651 152.754 130.381C153.017 130.093 153.322 129.846 153.658 129.648C153.833 129.54 154.019 129.451 154.214 129.382C154.44 129.297 154.679 129.25 154.921 129.242L154.953 129.243L155.067 129.262L155.538 129.337L156.083 129.379C156.442 129.413 156.826 129.412 157.196 129.43C157.946 129.45 158.699 129.458 159.457 129.456L164.003 129.402C167.037 129.358 170.076 129.275 173.11 129.17L173.124 129.169C173.235 129.166 173.344 129.201 173.432 129.269C173.52 129.337 173.581 129.434 173.605 129.543C174.285 132.642 174.821 135.759 175.278 138.893C175.51 140.458 175.686 142.032 175.806 143.614C175.95 145.193 175.976 146.78 175.883 148.363C175.882 148.371 175.88 148.379 175.877 148.386C175.873 148.393 175.868 148.4 175.862 148.405C175.856 148.41 175.849 148.414 175.841 148.416C175.834 148.419 175.826 148.42 175.818 148.419C175.802 148.418 175.788 148.411 175.777 148.399C175.767 148.388 175.761 148.372 175.762 148.357C175.763 146.783 175.647 145.211 175.414 143.654C175.205 142.095 174.938 140.543 174.657 138.994C174.096 135.897 173.388 132.82 172.663 129.765L173.157 130.137C170.117 130.316 167.076 130.467 164.035 130.591C162.513 130.657 160.989 130.677 159.461 130.69C158.697 130.697 157.931 130.693 157.162 130.676C156.773 130.659 156.395 130.663 155.997 130.628L155.405 130.585L154.75 130.48L154.896 130.5C154.683 130.539 154.481 130.62 154.299 130.737C154.064 130.877 153.852 131.053 153.67 131.259C153.472 131.472 153.291 131.701 153.131 131.945C152.982 132.208 152.828 132.469 152.694 132.744C152.188 133.908 151.832 135.131 151.635 136.385C151.413 137.666 151.275 138.96 151.222 140.259C151.139 141.564 151.168 142.878 151.171 144.191V144.203C151.171 144.317 151.138 144.429 151.075 144.525C151.013 144.62 150.923 144.695 150.819 144.741C150.714 144.786 150.598 144.8 150.485 144.781C150.372 144.761 150.268 144.709 150.185 144.631C149.712 144.181 149.199 143.777 148.65 143.424C148.398 143.26 148.128 143.126 147.845 143.023C147.586 142.939 147.37 142.945 147.326 142.996C147.254 143.018 147.151 143.241 147.116 143.516C147.079 143.819 147.075 144.125 147.103 144.43C147.172 145.097 147.287 145.76 147.448 146.411C147.675 147.75 148.029 149.063 148.504 150.335C148.977 151.548 149.787 152.767 151.006 152.522C151.064 152.511 151.124 152.513 151.181 152.529C151.237 152.545 151.289 152.575 151.332 152.615C151.376 152.655 151.409 152.705 151.429 152.76C151.449 152.815 151.455 152.875 151.448 152.933L151.447 152.941C151.147 155.234 150.827 157.524 150.486 159.809C150.126 162.091 149.813 164.39 149.277 166.646C148.926 168.905 149.19 171.218 150.042 173.34C150.792 175.504 151.874 177.538 153.249 179.37C153.913 180.284 154.689 181.112 155.557 181.834C155.973 182.188 156.433 182.485 156.926 182.719C157.157 182.824 157.4 182.905 157.648 182.96C157.884 183.002 158.126 182.994 158.359 182.937C159.382 182.613 160.292 182.008 160.987 181.192C161.758 180.374 162.458 179.493 163.079 178.556C164.337 176.679 165.348 174.646 166.085 172.51C166.259 172.001 166.379 171.475 166.444 170.941C166.456 170.821 166.461 170.701 166.457 170.581C166.448 170.466 166.43 170.351 166.405 170.238C166.339 169.943 166.287 169.646 166.242 169.348C166.05 168.131 166.096 166.889 166.377 165.69C166.403 165.588 166.463 165.497 166.548 165.434C166.633 165.372 166.737 165.34 166.842 165.345L166.865 165.346C167.623 165.356 168.359 165.093 168.939 164.605C169.569 164.084 170.117 163.473 170.565 162.79C171.492 161.365 172.257 159.841 172.845 158.246C173.463 156.645 173.995 155.008 174.5 153.358L175.221 150.87C175.332 150.456 175.467 150.033 175.568 149.627C175.659 149.208 175.723 148.784 175.762 148.356C175.763 148.341 175.771 148.326 175.783 148.316C175.795 148.306 175.81 148.3 175.826 148.301C175.842 148.302 175.856 148.309 175.867 148.321C175.878 148.333 175.883 148.348 175.883 148.364L175.883 148.364Z" fill="black"/>
<path d="M175.34 139.773C174.78 139.493 174.259 139.22 173.739 138.983C173.25 138.745 172.73 138.574 172.195 138.475C171.7 138.386 171.19 138.437 170.722 138.623C170.204 138.867 169.724 139.187 169.3 139.573C169.453 138.934 169.828 138.37 170.359 137.983C170.939 137.582 171.653 137.424 172.348 137.545C172.996 137.666 173.605 137.944 174.12 138.356C174.626 138.734 175.042 139.217 175.34 139.773Z" fill="black"/>
<path d="M161.042 138.638C159.851 138.029 158.518 137.756 157.184 137.846C156.548 137.916 155.93 138.101 155.36 138.393C155.05 138.513 154.784 138.725 154.474 138.881C154.182 139.064 153.907 139.277 153.58 139.457C153.751 139.135 153.947 138.826 154.167 138.534C154.406 138.25 154.676 137.992 154.972 137.768C155.583 137.293 156.312 136.995 157.08 136.908C157.849 136.824 158.625 136.949 159.328 137.269C160.01 137.566 160.602 138.038 161.042 138.638Z" fill="black"/>
<path d="M169.496 148.411C169.421 148.884 169.217 149.328 168.907 149.693C168.597 150.059 168.192 150.332 167.737 150.482C167.283 150.644 166.795 150.691 166.318 150.619C165.854 150.557 165.415 150.372 165.047 150.083C165.514 149.989 165.924 149.959 166.316 149.883C166.691 149.82 167.06 149.724 167.417 149.595C167.775 149.472 168.118 149.311 168.443 149.117C168.806 148.9 169.157 148.664 169.496 148.411Z" fill="black"/>
<path d="M171.266 144.796C171.632 144.784 171.98 144.629 172.235 144.365C172.49 144.101 172.632 143.748 172.632 143.381C172.632 143.014 172.49 142.662 172.235 142.398C171.98 142.134 171.632 141.979 171.266 141.966C170.899 141.979 170.551 142.134 170.296 142.398C170.042 142.662 169.899 143.014 169.899 143.381C169.899 143.748 170.042 144.101 170.296 144.365C170.551 144.629 170.899 144.784 171.266 144.796Z" fill="black"/>
<path d="M158.818 144.646C159.185 144.633 159.532 144.478 159.787 144.214C160.042 143.95 160.184 143.598 160.184 143.231C160.184 142.864 160.042 142.511 159.787 142.247C159.532 141.983 159.185 141.828 158.818 141.816C158.451 141.828 158.104 141.983 157.849 142.247C157.594 142.511 157.451 142.864 157.451 143.231C157.451 143.598 157.594 143.95 157.849 144.214C158.104 144.478 158.451 144.633 158.818 144.646Z" fill="black"/>
<path d="M163.335 153.414C163.152 153.951 163.179 154.538 163.411 155.056C163.621 155.535 163.944 155.955 164.354 156.279C164.754 156.612 165.231 156.838 165.741 156.938C166.015 156.992 166.298 156.992 166.572 156.937C166.846 156.881 167.107 156.772 167.339 156.616C167.199 156.931 166.971 157.199 166.682 157.387C166.392 157.575 166.055 157.674 165.71 157.674C165.001 157.698 164.307 157.462 163.76 157.011C163.209 156.569 162.834 155.944 162.704 155.25C162.627 154.915 162.645 154.566 162.756 154.242C162.868 153.917 163.068 153.63 163.335 153.414Z" fill="black"/>
<path d="M137.413 139.67L131.985 128.985L126.496 118.339C124.652 114.8 122.774 111.278 120.803 107.815C119.828 106.079 118.841 104.35 117.791 102.667C117.265 101.827 116.725 100.997 116.152 100.2C115.637 99.4188 115.014 98.7142 114.301 98.1074L114.284 98.0958C114.233 98.0589 114.189 98.0122 114.156 97.9584C114.123 97.9046 114.1 97.8447 114.09 97.7822C114.08 97.7197 114.082 97.6558 114.096 97.5941C114.111 97.5325 114.137 97.4743 114.174 97.4229C114.215 97.3669 114.267 97.3201 114.326 97.2856C114.58 97.1021 114.778 96.853 114.901 96.5652C115.04 96.2301 115.119 95.8729 115.133 95.5102C115.144 94.7269 115.02 93.9477 114.767 93.2064C114.505 92.4372 114.183 91.69 113.803 90.972C113.435 90.2403 112.993 89.5445 112.562 88.8419L112.551 88.8241C112.532 88.793 112.519 88.7587 112.513 88.7228L111.783 84.4066L111.606 83.3253L111.519 82.782L111.48 82.5098C111.466 82.4383 111.446 82.3681 111.419 82.3002C111.307 81.9948 111.126 81.7196 110.889 81.496C110.653 81.2725 110.368 81.1067 110.056 81.0116C109.46 80.9094 108.917 81.5245 108.878 82.1687C108.861 82.8534 108.881 83.6136 108.885 84.332C108.896 85.0597 108.902 85.7891 108.943 86.5121C108.985 86.7196 108.974 86.9343 108.91 87.1361C108.846 87.338 108.733 87.5205 108.58 87.6666C108.25 87.9214 107.838 88.0455 107.422 88.015C106.655 87.9584 105.916 87.6985 105.282 87.2619C104.964 87.0623 104.669 86.8071 104.393 86.6081C104.105 86.4031 103.799 86.2152 103.487 86.0355C102.219 85.3338 100.909 84.7093 99.5653 84.1652L97.5428 83.3506C96.8942 83.0692 96.2243 82.8395 95.5394 82.6636C95.2491 82.5844 94.9421 82.5903 94.655 82.6805C94.368 82.7708 94.1129 82.9417 93.9201 83.1728C93.7082 83.7754 93.7341 84.4361 93.9927 85.0201C94.0136 85.0857 94.0152 85.1559 93.9974 85.2224C93.9796 85.2888 93.9431 85.3488 93.8923 85.3952C93.8414 85.4415 93.7784 85.4723 93.7105 85.484C93.6427 85.4956 93.573 85.4875 93.5096 85.4607L93.5042 85.4584L91.7528 84.715C91.2332 84.4392 90.6637 84.27 90.0778 84.217C89.5564 84.1754 89.0385 84.3323 88.6278 84.6563C88.3321 84.9294 88.3819 85.434 88.6071 85.9589C88.6402 86.0362 88.6509 86.1212 88.6379 86.2043C88.625 86.2874 88.5888 86.3652 88.5337 86.4287C88.4786 86.4922 88.4067 86.5389 88.3263 86.5635C88.2458 86.588 88.1601 86.5895 88.0789 86.5676L88.0628 86.5632C87.4037 86.384 86.7347 86.2436 86.0592 86.1426C85.4354 86.0236 84.7952 86.0181 84.1694 86.1265C83.9198 86.2036 83.6921 86.3391 83.5054 86.5218C83.3186 86.7045 83.1781 86.9291 83.0955 87.177C82.9807 87.6037 83.2743 88.0765 83.7329 88.4837C83.8333 88.5729 83.8976 88.6959 83.9134 88.8292C83.9292 88.9626 83.8955 89.0972 83.8186 89.2074L83.8107 89.2186C83.6482 89.4201 83.5291 89.6529 83.4609 89.9026C83.3926 90.1522 83.3768 90.4133 83.4142 90.6694C83.5079 90.9927 84.0639 91.2378 84.6852 91.3089C85.0507 91.3391 85.414 91.3908 85.7734 91.4639C86.1382 91.5508 86.4972 91.6609 86.8481 91.7935C87.5267 92.052 88.187 92.356 88.8248 92.7032C90.0725 93.3875 91.2787 94.145 92.437 94.9717C93.5956 95.7896 94.713 96.6378 95.8143 97.548L95.7467 97.4978C97.682 98.729 99.6155 99.9731 101.568 101.172C102.542 101.767 103.527 102.372 104.506 102.901L104.864 103.082L105.4 103.319C105.504 103.413 105.592 103.523 105.66 103.646L105.783 103.86L105.991 104.265C106.253 104.797 106.49 105.325 106.725 105.855C108.585 110.091 110.207 114.398 111.796 118.723C113.382 123.047 114.878 127.406 116.213 131.817C116.88 134.022 117.524 136.236 118.054 138.482C118.652 140.714 119.014 143.003 119.132 145.311C119.132 145.319 119.131 145.327 119.128 145.335C119.125 145.342 119.12 145.349 119.115 145.354C119.109 145.36 119.103 145.365 119.095 145.368C119.088 145.371 119.08 145.373 119.072 145.373C119.056 145.372 119.041 145.366 119.03 145.355C119.018 145.343 119.011 145.328 119.01 145.312C118.786 143.031 118.323 140.779 117.627 138.594C116.983 136.392 116.291 134.204 115.55 132.03C114.063 127.686 112.463 123.379 110.813 119.093C109.146 114.816 107.423 110.549 105.593 106.358C105.36 105.838 105.123 105.318 104.875 104.82L104.687 104.458L104.596 104.299C104.587 104.269 104.492 104.17 104.601 104.28C104.654 104.311 104.595 104.3 104.793 104.382C104.849 104.399 104.907 104.407 104.966 104.406L104.923 104.403C104.866 104.398 104.81 104.389 104.754 104.377C104.694 104.362 104.636 104.343 104.578 104.32C104.473 104.283 104.417 104.251 104.334 104.216L103.922 104.009C102.875 103.449 101.897 102.852 100.906 102.253C98.9378 101.048 96.986 99.8299 95.052 98.5747L94.9907 98.5298L94.9841 98.5243C92.8921 96.7308 90.6405 95.1324 88.2574 93.7491C87.6705 93.4207 87.0622 93.1322 86.4366 92.8854C86.1347 92.7672 85.8256 92.6683 85.5112 92.5892C85.186 92.5206 84.8569 92.4714 84.5258 92.4418C84.1182 92.3915 83.7214 92.2762 83.3503 92.1003C82.896 91.894 82.5408 91.5177 82.3608 91.0524C82.2161 90.6022 82.2212 90.1171 82.3755 89.6701C82.5004 89.2769 82.6859 88.9055 82.9252 88.5695L83.0029 89.3039C82.6875 89.023 82.4255 88.6872 82.2297 88.3129C82.0157 87.8825 81.9609 87.3902 82.075 86.9232C82.1995 86.4871 82.4451 86.0953 82.7832 85.7931C83.0988 85.4921 83.4845 85.2747 83.9054 85.1607C84.668 85.0267 85.4492 85.041 86.2063 85.2028C86.9195 85.3264 87.6247 85.492 88.3183 85.6987L87.7741 86.3028C87.6284 85.9555 87.5496 85.5839 87.5416 85.2074C87.5402 84.9914 87.5824 84.7774 87.6657 84.578C87.7489 84.3787 87.8715 84.1982 88.0261 84.0474C88.3157 83.8073 88.65 83.6271 89.0097 83.5173C89.3695 83.4074 89.7475 83.3701 90.1217 83.4074C90.8017 83.4795 91.4606 83.6856 92.0605 84.0138L93.7938 84.7984L93.3054 85.2367C93.1514 84.8534 93.0756 84.4431 93.0824 84.03C93.0893 83.617 93.1786 83.2094 93.3452 82.8314C93.4659 82.6405 93.6238 82.4759 93.8094 82.3473C93.9951 82.2188 94.2047 82.1289 94.4258 82.0831C94.8248 81.9915 95.2382 81.9831 95.6405 82.0584C96.3647 82.2569 97.0709 82.5159 97.7517 82.8328L99.7654 83.7038C101.097 84.3097 102.426 84.9248 103.704 85.6621C104.023 85.8495 104.337 86.046 104.641 86.2669C104.953 86.4976 105.208 86.7249 105.507 86.917C106.076 87.3182 106.741 87.562 107.434 87.6238C107.753 87.6534 108.071 87.566 108.33 87.3778C108.442 87.2705 108.523 87.1357 108.565 86.9871C108.608 86.8384 108.61 86.6812 108.573 86.5312L108.502 84.3392C108.489 83.6001 108.458 82.9016 108.469 82.1293C108.501 81.7159 108.669 81.3246 108.947 81.0172C109.093 80.8563 109.275 80.7325 109.478 80.656C109.681 80.5795 109.899 80.5525 110.114 80.5773C110.524 80.6482 110.899 80.851 111.183 81.1549C111.467 81.4324 111.694 81.7623 111.852 82.1264C111.893 82.2279 111.924 82.3333 111.944 82.441L111.986 82.709L112.078 83.2447L112.279 84.3177L113.142 88.6035L113.094 88.4847C113.557 89.1885 114.03 89.8859 114.436 90.6318C114.859 91.3746 115.221 92.1504 115.519 92.9515C115.83 93.7813 115.993 94.6589 116.002 95.5448C116.023 96.0427 115.922 96.5382 115.706 96.9876C115.491 97.437 115.169 97.8266 114.767 98.1221L114.793 97.3004C115.643 97.9406 116.379 98.7193 116.971 99.604C117.571 100.424 118.13 101.264 118.671 102.112C119.749 103.81 120.77 105.536 121.753 107.281C123.694 110.786 125.534 114.338 127.34 117.906C129.159 121.467 130.861 125.085 132.575 128.696C134.282 132.31 135.931 135.951 137.523 139.618C137.529 139.633 137.53 139.649 137.524 139.664C137.519 139.679 137.507 139.691 137.493 139.698C137.479 139.704 137.462 139.705 137.447 139.7C137.432 139.695 137.42 139.684 137.413 139.67L137.413 139.67Z" fill="black"/>
<path d="M108.708 102.289C107.666 103.241 106.38 103.888 104.993 104.156C104.926 104.168 104.857 104.168 104.791 104.154C104.724 104.14 104.66 104.113 104.604 104.074C104.547 104.036 104.499 103.987 104.462 103.93C104.424 103.872 104.398 103.809 104.386 103.741C104.373 103.674 104.374 103.605 104.388 103.538C104.402 103.472 104.429 103.408 104.467 103.352C104.506 103.295 104.555 103.247 104.612 103.21C104.67 103.173 104.734 103.147 104.801 103.134C104.845 103.126 104.891 103.124 104.936 103.127C106.247 103.199 107.552 102.909 108.708 102.289Z" fill="black"/>
<path d="M107.757 90.0476C108.084 91.0418 108.32 92.0135 108.653 92.9474C108.806 93.414 108.992 93.8689 109.211 94.3085C109.433 94.7573 109.715 95.1737 110.049 95.546C109.55 95.3426 109.12 95.0008 108.809 94.561C108.493 94.1303 108.247 93.6529 108.078 93.146C107.731 92.1525 107.621 91.0913 107.757 90.0476Z" fill="black"/>
<path d="M101.13 88.4672L93.2842 85.4105C93.209 85.3812 93.1485 85.3232 93.1161 85.2493C93.0836 85.1754 93.0818 85.0916 93.1111 85.0164C93.1404 84.9412 93.1984 84.8807 93.2723 84.8482C93.3462 84.8158 93.4299 84.814 93.5052 84.8433L93.5254 84.852L101.13 88.4672Z" fill="black"/>
<path d="M97.3373 89.9721L88.0767 86.4919C88.0391 86.478 88.0046 86.4568 87.9752 86.4295C87.9458 86.4023 87.9221 86.3695 87.9055 86.333C87.8888 86.2965 87.8795 86.2571 87.8781 86.2171C87.8767 86.177 87.8833 86.1371 87.8974 86.0995C87.9115 86.062 87.9329 86.0277 87.9603 85.9984C87.9877 85.9692 88.0207 85.9457 88.0572 85.9292C88.0938 85.9127 88.1332 85.9036 88.1733 85.9025C88.2133 85.9013 88.2533 85.9081 88.2907 85.9224L88.308 85.9293L97.3373 89.9721Z" fill="black"/>
<path d="M93.2456 91.4314C91.6264 90.8839 89.9908 90.3855 88.3432 89.9475C87.5182 89.7345 86.6904 89.5332 85.8584 89.3765C85.0576 89.1971 84.2349 89.1356 83.4163 89.1941L83.3823 89.1988C83.3427 89.2041 83.3024 89.2017 83.2638 89.1915C83.2251 89.1813 83.1889 89.1636 83.157 89.1394C83.1252 89.1152 83.0985 89.085 83.0784 89.0504C83.0583 89.0159 83.0451 88.9778 83.0398 88.9381C83.0344 88.8985 83.0368 88.8583 83.047 88.8196C83.0572 88.781 83.0749 88.7447 83.0991 88.7129C83.1233 88.6811 83.1535 88.6543 83.1881 88.6342C83.2226 88.6141 83.2608 88.601 83.3004 88.5956L83.3196 88.5935C84.2103 88.5704 85.0991 88.6841 85.9553 88.9307C86.7927 89.1405 87.6133 89.3927 88.4292 89.6559C90.0568 90.1937 91.6623 90.7855 93.2456 91.4314Z" fill="black"/>
<path d="M202.243 145.272L205.727 132.319L207.442 125.84C207.715 124.759 207.992 123.675 208.229 122.594C208.452 121.513 208.617 120.42 208.725 119.321C209.224 114.891 209.634 110.435 210.099 105.986C210.327 103.76 210.578 101.535 210.851 99.3094C210.989 98.1967 211.145 97.0837 211.319 95.9701C211.426 95.4119 211.518 94.8573 211.641 94.296L211.849 93.4501C211.946 93.141 212.06 92.8376 212.191 92.5413C212.222 92.4629 212.281 92.3987 212.356 92.361L212.427 92.3255C213.426 91.8114 214.375 91.2069 215.263 90.5197C216.169 89.8348 217.02 89.0813 217.81 88.2659C219.395 86.6354 220.737 84.7846 221.794 82.7707L221.801 82.7578C221.821 82.719 221.847 82.6835 221.879 82.6526L227.661 76.9492C227.839 76.7383 227.954 76.4817 227.992 76.2086C228.045 75.9082 228.053 75.6017 228.016 75.2991C227.997 75.0454 227.88 74.8091 227.689 74.6411C227.475 74.5014 227.217 74.4475 226.965 74.4902C226.688 74.5366 226.43 74.6612 226.221 74.8495L225.503 75.5519C225.012 76.0275 224.514 76.4957 224.003 76.9518C223.002 77.9154 221.874 78.738 220.651 79.3969C220.472 79.4757 220.281 79.5262 220.086 79.5469C219.961 79.5631 219.834 79.5451 219.718 79.4947C219.602 79.4442 219.502 79.3633 219.429 79.2606C219.339 79.0766 219.288 78.8759 219.28 78.6713C219.272 78.4667 219.307 78.2627 219.382 78.0722C219.626 77.4096 219.972 76.7892 220.407 76.2334C221.238 75.1424 222.15 74.115 223.134 73.16C224.148 72.2905 224.948 71.1986 225.47 69.9695C225.703 69.364 225.624 68.6768 225.029 68.4479C224.74 68.334 224.426 68.2977 224.119 68.3428C223.812 68.3878 223.522 68.5126 223.278 68.7047C222.153 69.4351 221.143 70.3274 220.279 71.3528C219.834 71.859 219.399 72.3758 218.986 72.9112C218.557 73.4336 218.204 74.0066 217.71 74.5289C217.465 74.7861 217.194 75.0174 216.902 75.2191C216.754 75.3257 216.596 75.4196 216.432 75.4999C216.328 75.5658 216.209 75.6051 216.086 75.6142C215.963 75.6234 215.84 75.6022 215.727 75.5524C215.654 75.5058 215.596 75.4411 215.557 75.3647C215.533 75.3025 215.515 75.2383 215.502 75.1729C215.491 75.0687 215.492 74.9636 215.507 74.8599C215.53 74.6771 215.57 74.4969 215.627 74.3216C215.729 73.987 215.852 73.6587 215.993 73.3384C216.272 72.7017 216.605 72.0902 216.99 71.511L218.146 69.8304C218.903 68.7223 219.567 67.5531 220.13 66.335C220.408 65.7684 220.571 65.1526 220.61 64.523C220.608 64.3981 220.58 64.2749 220.527 64.1617C220.474 64.0485 220.398 63.9477 220.304 63.8659C220.221 63.7824 220.12 63.7208 220.008 63.6867C219.895 63.6526 219.777 63.6471 219.662 63.6706C219.086 63.847 218.576 64.1915 218.198 64.6598C217.759 65.1454 217.372 65.6753 217.043 66.2408C216.694 66.8104 216.413 67.3882 216.109 68.016C215.798 68.6388 215.46 69.238 215.106 69.8288C214.406 71.026 213.612 72.1661 212.733 73.2385C212.616 73.3735 212.493 73.5075 212.357 73.639C212.287 73.7085 212.214 73.7744 212.137 73.8364C212.086 73.8842 212.029 73.9249 211.967 73.9573C211.918 73.9834 211.868 74.0064 211.817 74.0261C211.728 74.0476 211.637 74.0528 211.546 74.0414C211.386 74.0139 211.242 73.9262 211.144 73.7961C211.09 73.7243 211.048 73.6445 211.018 73.5595C210.979 73.4474 210.95 73.3317 210.933 73.2141C210.908 73.0255 210.894 72.8355 210.892 72.6452C210.891 71.944 210.931 71.2434 211.012 70.5469C211.224 69.185 211.51 67.8357 211.868 66.5048C212.011 65.8836 212.078 65.2475 212.069 64.6102C212.075 64.0042 211.97 63.4021 211.758 62.8343C211.655 62.5939 211.489 62.4283 211.464 62.4472C211.45 62.4642 211.453 62.4419 211.428 62.4481C211.402 62.4659 211.372 62.4769 211.34 62.4801C211.243 62.5407 211.153 62.6108 211.07 62.6895C210.652 63.1493 210.297 63.6635 210.016 64.218C209.384 65.3698 208.896 66.5948 208.562 67.8656C208.393 68.5038 208.253 69.151 208.134 69.8083C208.004 70.4776 207.942 71.1056 207.757 71.867C207.403 73.237 206.882 74.5585 206.207 75.8023C205.837 76.5381 205.241 77.1365 204.507 77.5103C204.266 77.6066 204.006 77.6474 203.747 77.6296C203.615 77.623 203.484 77.6062 203.356 77.5791L203.02 77.4345C202.638 77.2446 202.301 76.9778 202.028 76.6508C200.98 75.4145 200.752 73.9393 200.089 73.0091C199.952 72.7971 199.769 72.6181 199.554 72.4853C199.339 72.3525 199.098 72.269 198.847 72.241C198.568 72.2062 198.285 72.2094 198.007 72.2507L197.576 72.327C197.469 72.374 197.328 72.4055 197.243 72.4516C197.062 72.5713 197.104 72.5393 197.088 72.668C197.129 72.9078 197.219 73.1364 197.352 73.3398C197.658 73.8673 198.073 74.4055 198.468 74.981C198.679 75.2775 198.872 75.5864 199.045 75.9062C199.233 76.2517 199.374 76.6207 199.465 77.0034C199.63 77.7199 199.714 78.3992 199.806 79.0844L200.279 83.1312C200.37 83.7952 200.467 84.4584 200.602 85.0954C200.664 85.4039 200.746 85.7082 200.845 86.0068C200.908 86.2245 201.007 86.4302 201.138 86.6153L201.278 86.8336C201.319 86.8973 201.346 86.9691 201.356 87.0441C201.367 87.119 201.361 87.1953 201.34 87.2679C200.072 91.5208 198.73 95.752 197.429 99.995L193.497 112.716L189.565 125.436L185.538 138.128C185.533 138.143 185.522 138.156 185.508 138.164C185.494 138.171 185.478 138.173 185.462 138.168C185.447 138.164 185.434 138.153 185.426 138.139C185.419 138.125 185.417 138.109 185.421 138.093L189.03 125.276L192.735 112.488L196.44 99.6987C197.684 95.4388 198.889 91.1668 200.166 86.9164L200.368 87.5691C200.183 87.3965 200.031 87.1923 199.918 86.9659C199.821 86.7895 199.743 86.6034 199.685 86.4107C199.568 86.0649 199.472 85.7123 199.398 85.3547C199.249 84.6619 199.148 83.9786 199.052 83.296L198.565 79.2416C198.476 78.5797 198.387 77.9084 198.244 77.2996C198.079 76.7178 197.802 76.1738 197.429 75.6978C197.055 75.1532 196.631 74.6165 196.25 73.9687C196.015 73.5988 195.867 73.1799 195.819 72.7441C195.797 72.6008 195.808 72.4545 195.85 72.3158C195.873 72.1614 195.933 72.0148 196.024 71.8876C196.176 71.6509 196.388 71.4583 196.638 71.3291C196.838 71.2348 197.044 71.1553 197.255 71.0914L197.827 70.9853C198.222 70.9261 198.623 70.9214 199.018 70.9713C199.443 71.0243 199.852 71.167 200.218 71.3901C200.584 71.6132 200.898 71.9115 201.139 72.2652C202.018 73.5839 202.229 74.9623 202.988 75.8133C203.148 76.0116 203.346 76.1753 203.572 76.2946C203.616 76.3143 203.658 76.3369 203.699 76.3623C203.74 76.3715 203.776 76.3605 203.813 76.369C203.885 76.4061 203.965 76.3427 204.047 76.3388C204.516 76.0625 204.895 75.6562 205.139 75.1691C205.767 74.0227 206.255 72.8048 206.592 71.5418C206.734 70.9828 206.828 70.2557 206.96 69.5913C207.088 68.9114 207.241 68.2299 207.426 67.5551C207.795 66.1956 208.329 64.8865 209.017 63.6571C209.357 63.0006 209.79 62.396 210.301 61.8614C210.465 61.7076 210.649 61.5753 210.847 61.4678C210.976 61.4178 211.108 61.375 211.242 61.3395C211.399 61.3214 211.557 61.3259 211.712 61.3529C211.957 61.4305 212.18 61.5639 212.365 61.7425C212.549 61.9211 212.69 62.14 212.776 62.3821C213.046 63.0888 213.179 63.8407 213.167 64.5972C213.169 65.3209 213.082 66.0421 212.907 66.7444C212.537 68.0334 212.235 69.3412 212.002 70.6622C211.915 71.3152 211.866 71.9728 211.854 72.6315C211.853 72.7812 211.861 72.9307 211.877 73.0795C211.884 73.1302 211.894 73.1802 211.908 73.2294C211.915 73.2605 211.912 73.2317 211.896 73.2195C211.843 73.1617 211.773 73.1227 211.697 73.1085C211.648 73.0982 211.598 73.1023 211.552 73.1202C211.539 73.1198 211.526 73.123 211.515 73.1295C211.475 73.1622 211.53 73.1193 211.55 73.1014C211.607 73.0577 211.66 73.0108 211.712 72.9611C211.822 72.8581 211.931 72.7437 212.039 72.623C212.9 71.605 213.681 70.5213 214.374 69.3817C214.728 68.8117 215.069 68.232 215.375 67.6428C215.674 67.0523 215.999 66.4107 216.372 65.8271C216.738 65.223 217.166 64.6585 217.649 64.1428C218.145 63.5581 218.812 63.1441 219.556 62.9595C219.778 62.9243 220.004 62.9418 220.218 63.0107C220.431 63.0796 220.626 63.1978 220.785 63.3559C220.94 63.5007 221.065 63.6746 221.153 63.8676C221.244 64.0665 221.291 64.2822 221.293 64.5008C221.25 65.2315 221.055 65.9454 220.723 66.5975C220.122 67.8387 219.42 69.0277 218.621 70.152C217.787 71.2076 217.06 72.3431 216.449 73.5419C216.311 73.8413 216.19 74.1485 216.087 74.462C216.036 74.6093 215.999 74.7611 215.976 74.9153C215.959 74.9965 215.959 75.0801 215.974 75.1615C216.067 75.1588 216.158 75.1337 216.239 75.0882C216.381 75.0195 216.517 74.9392 216.645 74.848C216.914 74.6652 217.163 74.455 217.389 74.2209C217.837 73.7582 218.211 73.1707 218.647 72.6447C219.068 72.1062 219.512 71.585 219.969 71.0742C220.867 70.0225 221.917 69.11 223.083 68.3665C223.392 68.1759 223.73 68.0378 224.083 67.9577C224.459 67.8859 224.849 67.939 225.192 68.1088C225.374 68.1865 225.536 68.3064 225.663 68.4587C225.791 68.611 225.88 68.7913 225.924 68.9848C225.987 69.3545 225.951 69.7343 225.819 70.0855C225.29 71.3763 224.469 72.5268 223.42 73.4464C222.46 74.3942 221.572 75.4123 220.764 76.4922C220.363 77.0116 220.045 77.5896 219.821 78.2059C219.721 78.459 219.718 78.7404 219.814 78.9952C219.864 79.1294 220.185 79.0829 220.467 78.9563C221.628 78.3029 222.692 77.4898 223.628 76.5405C224.121 76.0797 224.604 75.6056 225.078 75.1242L225.802 74.3842C226.097 74.1084 226.464 73.923 226.861 73.8498C227.285 73.7702 227.724 73.8592 228.085 74.0981C228.426 74.3656 228.648 74.7573 228.701 75.1877C228.758 75.5595 228.758 75.9377 228.703 76.3098C228.652 76.715 228.49 77.0982 228.235 77.4168L222.53 83.3001L222.615 83.1819C222.088 84.2439 221.484 85.2656 220.807 86.2386C220.127 87.2107 219.37 88.1268 218.544 88.9781C217.725 89.8358 216.84 90.6293 215.899 91.3516C214.956 92.0921 213.946 92.7429 212.882 93.2956L213.117 93.08C213.047 93.3076 212.951 93.4893 212.885 93.7447L212.699 94.5285C212.586 95.0593 212.498 95.6088 212.399 96.1491C212.221 97.2436 212.055 98.3424 211.908 99.4476C211.615 101.657 211.346 103.872 211.102 106.094C210.589 110.534 210.174 114.983 209.59 119.43C209.455 120.553 209.262 121.669 209.01 122.772C208.744 123.871 208.445 124.948 208.148 126.028L206.295 132.479C205.011 136.764 203.689 141.036 202.359 145.306C202.354 145.321 202.344 145.334 202.33 145.342C202.316 145.349 202.299 145.351 202.284 145.347C202.269 145.342 202.256 145.332 202.248 145.318C202.24 145.304 202.238 145.288 202.242 145.272L202.243 145.272Z" fill="black"/>
<path d="M216.955 81.1588C216.151 80.2302 215.293 79.3504 214.384 78.5241C213.941 78.1251 213.454 77.7768 212.934 77.4859C212.4 77.1951 211.819 77.0021 211.218 76.9159C211.854 76.7678 212.52 76.8155 213.129 77.0529C213.736 77.2875 214.296 77.6302 214.782 78.0644C215.747 78.904 216.493 79.9661 216.955 81.1588Z" fill="black"/>
<path d="M209.085 78.6226C209.244 79.6038 209.246 80.6041 209.09 81.5859C209.017 82.0787 208.903 82.5644 208.748 83.0378C208.606 83.5261 208.356 83.9765 208.018 84.3561C208.14 83.8861 208.229 83.4084 208.286 82.9263L208.489 81.4961C208.617 80.525 208.817 79.5646 209.085 78.6226Z" fill="black"/>
<path d="M204.449 88.4863C203.732 88.5697 203.007 88.5442 202.298 88.4105C201.498 88.279 200.763 87.8895 200.204 87.3014L200.181 87.2751C200.126 87.2149 200.084 87.1444 200.057 87.0678C200.029 86.9913 200.017 86.91 200.021 86.8288C200.025 86.7475 200.045 86.6679 200.08 86.5944C200.115 86.5209 200.164 86.455 200.224 86.4004C200.285 86.3459 200.355 86.3038 200.432 86.2765C200.508 86.2493 200.59 86.2374 200.671 86.2415C200.752 86.2457 200.832 86.2658 200.905 86.3008C200.979 86.3358 201.044 86.3849 201.099 86.4453C201.143 86.4945 201.179 86.5503 201.206 86.6107C201.492 87.1491 201.945 87.5795 202.498 87.8362C203.112 88.1498 203.769 88.369 204.449 88.4863Z" fill="black"/>
<path d="M124.417 243.461C124.437 249.3 124.439 255.139 124.366 260.976C124.304 266.813 124.264 272.65 124.131 278.486L123.784 295.993C123.643 301.828 123.447 307.661 123.196 313.494L122.966 313.003C125.502 314.962 128.235 316.65 131.122 318.04C134.006 319.469 137.07 320.501 140.231 321.106C143.392 321.715 146.645 321.67 149.787 320.972C152.915 320.24 155.83 318.794 158.305 316.747C158.339 316.718 158.378 316.697 158.421 316.685C158.463 316.672 158.508 316.668 158.552 316.674L158.569 316.676C162.016 317.084 165.485 317.281 168.956 317.264C172.417 317.258 175.874 317.018 179.302 316.545C182.703 316.098 186.036 315.231 189.223 313.962C192.368 312.769 195.139 310.762 197.254 308.146L197.084 308.75L195.173 292.329L193.359 275.896L191.531 259.465C190.906 253.989 190.294 248.512 189.617 243.04C189.614 243.018 189.62 242.996 189.633 242.978C189.647 242.96 189.666 242.949 189.688 242.945C189.709 242.942 189.732 242.947 189.75 242.959C189.768 242.972 189.78 242.991 189.784 243.013C190.842 248.428 191.729 253.875 192.562 259.328C193.423 264.777 194.155 270.244 194.897 275.709C195.651 281.172 196.315 286.647 196.977 292.121C197.613 297.599 198.208 303.081 198.763 308.568L198.764 308.582C198.785 308.794 198.724 309.005 198.594 309.173C196.27 311.992 193.238 314.141 189.808 315.4C186.485 316.663 183.012 317.492 179.477 317.868C175.98 318.266 172.459 318.4 168.942 318.271C165.435 318.171 161.937 317.864 158.467 317.35L158.731 317.279C156.143 319.329 153.128 320.772 149.908 321.503C146.69 322.178 143.374 322.232 140.136 321.664C136.906 321.105 133.759 320.149 130.764 318.819C127.749 317.506 124.882 315.875 122.212 313.955C122.14 313.903 122.082 313.835 122.042 313.756C122.002 313.677 121.981 313.59 121.982 313.502L121.982 313.464C122.03 307.626 122.125 301.79 122.266 295.955L122.79 278.452C122.949 272.618 123.199 266.785 123.427 260.952C123.644 255.119 123.937 249.288 124.248 243.457C124.249 243.435 124.259 243.414 124.275 243.399C124.291 243.384 124.312 243.376 124.334 243.377C124.356 243.377 124.377 243.386 124.393 243.402C124.408 243.418 124.417 243.439 124.417 243.461L124.417 243.461Z" fill="black"/>
<path d="M165.472 261.43C166.824 260.976 168.153 260.487 169.476 260.003C170.794 259.506 172.103 258.996 173.369 258.4C174.645 257.837 175.877 257.178 177.054 256.429C178.245 255.685 179.321 254.772 180.249 253.72C179.563 254.997 178.603 256.106 177.437 256.968C176.289 257.845 175.042 258.585 173.721 259.17C172.415 259.765 171.064 260.254 169.679 260.63C168.303 261.021 166.895 261.289 165.472 261.43Z" fill="black"/>
<path d="M158.518 317.013C158.79 312.204 159.265 307.411 159.812 302.626C160.357 297.841 161.064 293.075 161.835 288.318C162.664 283.573 163.563 278.833 164.742 274.156C165.831 269.456 167.336 264.862 169.239 260.428L168.074 263.843L167.083 267.308C166.466 269.628 165.862 271.952 165.376 274.305C164.854 276.649 164.385 279.005 163.912 281.36C163.488 283.725 163.042 286.085 162.669 288.459C161.83 293.192 161.138 297.95 160.456 302.71C160.107 305.089 159.778 307.471 159.469 309.857L158.518 317.013Z" fill="black"/>
<path d="M166.918 317.717L167.593 305.022C167.801 300.792 168.035 296.564 168.142 292.333C168.317 288.104 168.38 283.875 168.332 279.646C168.309 277.533 168.243 275.419 168.065 273.315C167.97 271.203 167.584 269.114 166.918 267.107C167.743 269.072 168.269 271.15 168.479 273.271C168.741 275.383 168.881 277.505 168.984 279.627C169.172 283.873 169.097 288.12 168.988 292.361C168.809 296.601 168.588 300.838 168.24 305.064C167.893 309.291 167.485 313.513 166.918 317.717Z" fill="black"/>
<path d="M123.344 273.246C126.074 272.912 128.821 272.721 131.571 272.673C131.654 272.671 131.737 272.686 131.815 272.716C131.892 272.746 131.963 272.791 132.023 272.848C132.084 272.905 132.132 272.974 132.166 273.05C132.199 273.126 132.218 273.208 132.22 273.291L132.22 273.294L132.22 273.322C132.247 274.714 132.279 276.106 132.218 277.498C132.16 278.89 132.044 280.283 131.954 281.675C131.752 284.455 131.751 287.246 131.95 290.027C132.022 291.419 132.137 292.811 132.196 294.203C132.256 295.595 132.282 296.987 132.316 298.379C132.412 301.164 132.398 303.947 132.306 306.732L132.304 306.794C132.299 306.959 132.234 307.116 132.122 307.238C132.01 307.359 131.859 307.437 131.695 307.456C130.873 307.558 130.046 307.606 129.218 307.6C128.392 307.601 127.567 307.535 126.751 307.401C125.92 307.276 125.112 307.026 124.356 306.659C123.968 306.483 123.619 306.23 123.332 305.916C123.044 305.602 122.823 305.232 122.682 304.83C122.679 304.82 122.679 304.81 122.68 304.8C122.681 304.79 122.684 304.781 122.689 304.772C122.694 304.763 122.701 304.756 122.709 304.75C122.717 304.743 122.726 304.739 122.736 304.736C122.752 304.732 122.769 304.733 122.785 304.74C122.801 304.746 122.814 304.758 122.822 304.772C123.228 305.418 123.868 305.883 124.608 306.068C125.336 306.287 126.091 306.404 126.851 306.415C127.623 306.425 128.395 306.396 129.164 306.327C129.929 306.25 130.717 306.152 131.448 306.007L130.836 306.732C130.745 303.948 130.731 301.164 130.826 298.379C130.86 296.987 130.887 295.595 130.946 294.203C131.005 292.811 131.12 291.419 131.193 290.027C131.392 287.246 131.39 284.455 131.188 281.675C131.099 280.283 130.983 278.89 130.925 277.499C130.863 276.107 130.896 274.714 130.922 273.322L131.571 273.971C128.82 273.923 126.074 273.732 123.344 273.398C123.325 273.396 123.308 273.387 123.296 273.373C123.284 273.359 123.277 273.341 123.277 273.322C123.277 273.304 123.284 273.286 123.296 273.272C123.308 273.258 123.325 273.249 123.344 273.246L123.344 273.246Z" fill="black"/>
<path d="M123 278.021C124.419 277.954 125.841 278.046 127.24 278.296C128.644 278.51 130.02 278.883 131.34 279.407C129.921 279.476 128.499 279.384 127.101 279.132C125.697 278.917 124.321 278.544 123 278.021Z" fill="black"/>
<path d="M126.026 315.228C125.027 316.323 124.082 317.463 123.183 318.63C122.337 319.862 121.409 321.036 120.406 322.144C119.875 322.684 119.312 323.182 118.734 323.665C118.132 324.147 117.51 324.563 116.893 324.981L113.198 327.438C108.305 330.698 103.699 334.369 99.4283 338.41C97.2982 340.427 95.2742 342.553 93.3244 344.746C91.3931 346.97 89.5797 349.235 87.7569 351.601C85.9116 353.947 83.9378 356.189 81.8446 358.317C79.7672 360.472 77.4165 362.278 75.2059 364.264C76.0896 363.067 77.0888 361.953 78.058 360.834C79.0195 359.702 80.0366 358.629 81.0155 357.536C82.9888 355.355 84.8251 353.056 86.5863 350.705C90.0169 345.817 93.9369 341.291 98.2855 337.199C100.457 335.145 102.745 333.219 105.14 331.431C107.52 329.634 109.993 327.962 112.548 326.423C113.814 325.645 115.111 324.914 116.382 324.168C117.017 323.795 117.644 323.414 118.232 323.015C118.822 322.589 119.401 322.141 119.943 321.66C120.999 320.639 121.986 319.549 122.897 318.397C123.879 317.282 124.923 316.224 126.026 315.228Z" fill="black"/>
<path d="M83.2335 381.734C84.6751 380.292 86.1591 378.893 87.6599 377.514C89.1628 376.136 90.6582 374.747 92.2059 373.419C95.2954 370.755 98.4303 368.14 101.656 365.628C104.892 363.107 108.266 360.77 111.763 358.628C113.535 357.544 115.38 356.586 117.286 355.76C117.764 355.546 118.275 355.386 118.773 355.205C119.256 355.031 119.709 354.888 120.174 354.708C121.095 354.348 122.01 353.956 122.906 353.514C130.074 349.797 136.654 345.04 142.429 339.397C145.35 336.6 147.994 333.529 150.325 330.225C152.746 326.961 154.414 323.201 155.208 319.215C154.87 323.307 153.074 327.15 150.943 330.63C148.728 334.091 146.157 337.311 143.273 340.238C140.424 343.197 137.348 345.93 134.073 348.41C130.811 350.936 127.315 353.144 123.632 355.004C122.705 355.468 121.749 355.885 120.776 356.271C120.293 356.462 119.775 356.63 119.301 356.804C118.844 356.975 118.383 357.121 117.932 357.327C116.095 358.108 114.315 359.017 112.604 360.047C109.146 362.105 105.788 364.385 102.512 366.775C99.2064 369.128 95.9727 371.594 92.7804 374.114C89.5683 376.61 86.3989 379.165 83.2335 381.734Z" fill="black"/>
<path d="M128.5 331.662C127.664 333.047 126.789 334.34 126.09 335.707C125.727 336.37 125.446 337.074 125.252 337.805C125.045 338.543 125.053 339.326 125.275 340.06C125.004 339.736 124.804 339.358 124.687 338.952C124.571 338.546 124.541 338.119 124.599 337.701C124.686 336.867 124.937 336.058 125.336 335.32C126.09 333.87 127.173 332.617 128.5 331.662Z" fill="black"/>
<path d="M84.0164 382.582C83.2265 381.951 82.234 381.629 81.2241 381.676C79.0921 381.733 74.4226 381.243 72.7623 376.252C72.4069 375.055 72.298 373.798 72.4423 372.558C72.5866 371.317 72.9811 370.119 73.6019 369.036C74.8189 366.8 76.1113 363.47 74.366 361.527C71.5549 358.433 65.7628 364.281 65.7628 364.281C65.7628 364.281 61.8102 367.064 58.5085 366.781C57.1578 366.65 55.7952 366.838 54.5303 367.329C53.2655 367.821 52.1336 368.602 51.2259 369.611C48.8015 372.318 47.5186 376.573 53.0843 382.356C53.0843 382.356 57.2916 386.139 59.5556 400.204C61.8196 414.269 67.4797 431.598 77.3187 426.476C77.6991 426.191 78.0109 425.824 78.2313 425.403C78.4516 424.982 78.5749 424.517 78.5922 424.042C78.5163 423.592 78.3289 423.168 78.0472 422.809C77.7654 422.449 77.3982 422.166 76.9791 421.985C76.5706 421.789 76.1291 421.671 75.6773 421.636C75.208 421.609 74.7373 421.628 74.2717 421.693C73.2419 421.735 72.2145 421.564 71.253 421.193C69.3653 420.365 67.7709 418.988 66.6778 417.24C65.6038 415.55 64.7719 413.718 64.2063 411.797L64.1874 411.76V411.731C63.4422 408.232 62.6498 404.732 61.7441 401.279C61.2914 399.553 60.8102 397.826 60.2631 396.138C59.7871 394.464 59.0892 392.862 58.1878 391.374C57.238 389.789 56.4781 388.099 55.9238 386.337C55.339 384.62 54.8484 382.874 54.4333 381.11C54.0228 379.344 53.7391 377.55 53.5843 375.743C53.3427 373.941 53.5038 372.108 54.056 370.375C53.6975 372.131 53.6975 373.94 54.056 375.696C54.3573 377.453 54.7478 379.194 55.2257 380.912C55.7163 382.629 56.2728 384.318 56.9237 385.969C57.5373 387.61 58.3114 389.187 59.2349 390.676C59.4519 390.997 59.7443 391.478 59.9802 391.874C60.1877 392.298 60.4047 392.713 60.5839 393.138C60.9518 393.987 61.2631 394.846 61.5556 395.713C62.131 397.44 62.6309 399.175 63.1026 400.921C63.9988 404.42 64.8006 407.92 65.4609 411.477C65.9662 413.28 66.6951 415.014 67.6306 416.637C68.5378 418.262 69.9158 419.574 71.5832 420.401C72.4235 420.776 73.3326 420.972 74.2529 420.976C74.7563 420.941 75.262 420.957 75.7623 421.023C76.2787 421.105 76.7748 421.284 77.2244 421.551C77.6855 421.793 78.0783 422.147 78.3668 422.581C78.6552 423.015 78.8301 423.514 78.8753 424.032C78.8222 424.532 78.654 425.013 78.384 425.437C78.1139 425.861 77.7493 426.216 77.3187 426.476C77.3187 426.476 81.0921 426.4 81.0827 417.127C81.0732 411.656 81.1958 403.373 81.2902 397.515C80.4317 397.147 79.6488 396.723 78.8752 396.308L76.5923 395.072C75.8605 394.681 75.1043 394.337 74.3283 394.044C73.55 393.715 72.6855 393.648 71.8662 393.855C72.1971 393.487 72.6179 393.211 73.0875 393.054C73.557 392.896 74.0593 392.864 74.5452 392.959C75.4943 393.069 76.4134 393.361 77.2526 393.817C78.0685 394.251 78.8261 394.787 79.5072 395.411C80.2119 396.011 80.8142 396.722 81.2901 397.515C81.3656 393.449 81.4222 390.544 81.4222 390.544C80.7053 389.912 80.111 389.28 79.4506 388.723C78.82 388.166 78.1449 387.661 77.4319 387.214C75.9631 386.302 74.3627 385.621 72.6868 385.195C73.5929 384.881 74.5652 384.81 75.5074 384.987C76.4612 385.144 77.3729 385.494 78.1865 386.016C79.0047 386.525 79.7134 387.192 80.2713 387.978C80.8319 388.742 81.2242 389.617 81.4222 390.544C81.4222 390.544 87.6765 385.648 84.0164 382.582ZM65.1119 385.139C63.4422 385.525 60.3197 383.082 61.263 379.714C62.3573 375.799 61.7819 373.29 63.4516 372.903C65.1213 372.517 66.8476 374.95 67.3004 378.327C67.7627 381.705 66.7816 384.752 65.1119 385.139ZM74.4415 400.072C75.4201 400.125 76.3756 400.389 77.2432 400.845C78.0964 401.28 78.8736 401.851 79.545 402.534C80.229 403.184 80.7829 403.959 81.177 404.817C79.5544 403.864 78.13 402.873 76.6017 402.109C75.8537 401.726 75.0742 401.407 74.2717 401.157C73.4194 400.946 72.546 400.832 71.6681 400.817C72.4882 400.276 73.4609 400.015 74.4415 400.072Z" fill="black"/>
<path d="M169.161 317.243C168.332 318.472 167.562 319.737 166.842 321.022C166.184 322.364 165.436 323.66 164.604 324.901C164.157 325.513 163.672 326.087 163.17 326.649C162.645 327.213 162.089 327.715 161.54 328.218L158.239 331.185C153.871 335.12 149.846 339.419 146.206 344.036C144.391 346.341 142.697 348.738 141.085 351.19C139.497 353.671 138.031 356.176 136.571 358.781C135.085 361.369 133.457 363.874 131.694 366.283C129.951 368.716 127.887 370.844 125.988 373.129C126.689 371.817 127.516 370.57 128.313 369.322C129.1 368.063 129.951 366.854 130.761 365.63C132.397 363.186 133.881 360.646 135.282 358.064C137.968 352.73 141.191 347.684 144.9 343.004C146.75 340.657 148.736 338.42 150.845 336.304C152.94 334.18 155.144 332.168 157.449 330.275C158.589 329.32 159.766 328.409 160.916 327.487C161.49 327.026 162.055 326.558 162.579 326.078C163.101 325.571 163.609 325.044 164.075 324.49C164.972 323.326 165.791 322.105 166.525 320.833C167.335 319.587 168.215 318.389 169.161 317.243Z" fill="black"/>
<path d="M136.464 389.251C141.705 382.345 147.368 375.769 153.422 369.562C156.454 366.425 159.703 363.507 163.146 360.828C164.025 360.168 164.924 359.529 165.865 358.935C166.782 358.338 167.868 357.817 168.742 357.346C170.579 356.297 172.323 355.095 173.956 353.751C177.27 351.043 180.351 348.062 183.168 344.84C186.009 341.628 188.584 338.19 190.867 334.56C193.163 330.939 194.963 327.026 196.22 322.927C197.557 318.816 197.666 314.405 196.532 310.234C198.11 314.304 197.918 318.887 196.904 323.107C195.808 327.343 194.108 331.4 191.856 335.151C187.428 342.704 181.721 349.43 174.991 355.03C173.289 356.443 171.471 357.709 169.555 358.814C168.525 359.367 167.666 359.797 166.761 360.368C165.869 360.921 165 361.529 164.145 362.161C160.751 364.784 157.514 367.604 154.45 370.606C151.341 373.585 148.299 376.643 145.324 379.779C142.34 382.902 139.387 386.059 136.464 389.251Z" fill="black"/>
<path d="M173.993 333.146C173.366 334.637 172.688 336.043 172.194 337.497C171.932 338.206 171.755 338.943 171.67 339.694C171.572 340.455 171.693 341.228 172.019 341.922C171.704 341.641 171.451 341.296 171.277 340.911C171.103 340.526 171.011 340.108 171.008 339.686C170.974 338.848 171.104 338.011 171.392 337.224C171.928 335.679 172.818 334.282 173.993 333.146Z" fill="black"/>
<path d="M139.466 424.58C138.966 421.193 138.353 416.703 137.777 412.392C136.032 411.675 134.476 410.901 132.863 410.373C132.067 410.103 131.249 409.901 130.419 409.769C129.544 409.679 128.66 409.691 127.787 409.807C128.522 409.158 129.444 408.759 130.419 408.666C131.396 408.589 132.378 408.711 133.306 409.024C134.213 409.329 135.064 409.782 135.825 410.364C136.597 410.911 137.26 411.599 137.777 412.392C137.438 409.826 137.108 407.316 136.834 405.147C135.964 404.911 135.107 404.627 134.268 404.298L131.834 403.411C131.051 403.132 130.251 402.902 129.438 402.722C128.618 402.507 127.75 402.567 126.967 402.892C127.246 402.483 127.624 402.152 128.066 401.929C128.509 401.706 129 401.6 129.495 401.619C130.45 401.593 131.401 401.75 132.297 402.081C133.17 402.389 134.001 402.807 134.768 403.326C135.546 403.823 136.243 404.437 136.834 405.147C136.306 401.119 135.947 398.232 135.947 398.232C135.155 397.713 134.466 397.166 133.73 396.713C133.026 396.256 132.288 395.853 131.523 395.506C129.935 394.823 128.252 394.384 126.533 394.204C127.38 393.757 128.331 393.545 129.287 393.591C130.253 393.612 131.206 393.824 132.09 394.214C132.973 394.604 133.772 395.165 134.438 395.864C135.103 396.538 135.618 397.345 135.947 398.232C135.947 398.232 141.428 392.478 137.362 389.978C136.49 389.465 135.459 389.291 134.466 389.487C132.363 389.846 127.684 390.044 125.306 385.346C124.782 384.212 124.494 382.984 124.458 381.736C124.422 380.487 124.64 379.244 125.099 378.082C125.976 375.696 126.769 372.205 124.759 370.545C121.533 367.885 116.647 374.517 116.647 374.517C116.647 374.517 113.137 377.847 109.826 378.045C108.472 378.111 107.152 378.493 105.973 379.162C104.793 379.83 103.787 380.766 103.034 381.894C101.034 384.931 100.383 389.318 106.723 394.242C106.723 394.242 111.43 397.374 115.713 410.958C119.995 424.551 128.108 440.871 137.098 434.372C137.434 434.037 137.69 433.63 137.846 433.183C138.003 432.735 138.057 432.258 138.004 431.787C137.865 431.353 137.62 430.96 137.29 430.645C136.961 430.331 136.557 430.104 136.117 429.985C135.685 429.847 135.23 429.793 134.778 429.825C134.308 429.867 133.843 429.956 133.391 430.089C132.376 430.278 131.333 430.258 130.325 430.032C128.34 429.486 126.565 428.355 125.231 426.787C123.922 425.268 122.833 423.572 121.995 421.75L121.977 421.721L121.967 421.693C120.722 418.344 119.429 414.995 118.033 411.703C117.335 410.062 116.609 408.43 115.826 406.836C115.108 405.25 114.185 403.766 113.081 402.421C111.911 400.992 110.914 399.431 110.109 397.77C109.285 396.154 108.542 394.498 107.883 392.808C107.216 391.124 106.674 389.393 106.26 387.629C105.762 385.878 105.656 384.039 105.949 382.243C105.848 384.031 106.108 385.821 106.713 387.506C107.271 389.201 107.913 390.866 108.638 392.497C109.364 394.119 110.166 395.714 111.053 397.26C111.896 398.791 112.888 400.235 114.015 401.572C114.279 401.864 114.637 402.298 114.93 402.656C115.184 403.043 115.467 403.43 115.713 403.826C116.194 404.609 116.628 405.411 117.043 406.222C117.863 407.845 118.609 409.496 119.326 411.156C120.722 414.486 122.024 417.844 123.193 421.259C123.953 422.97 124.923 424.58 126.08 426.051C127.219 427.524 128.773 428.622 130.542 429.202C131.429 429.446 132.357 429.507 133.268 429.381C133.761 429.273 134.264 429.216 134.768 429.212C135.289 429.217 135.804 429.319 136.287 429.514C136.779 429.687 137.22 429.982 137.568 430.371C137.916 430.76 138.16 431.231 138.277 431.74C138.3 432.24 138.206 432.739 138.001 433.196C137.796 433.653 137.487 434.056 137.098 434.372C137.098 434.372 140.815 433.749 139.466 424.58ZM119.024 395.251C117.43 395.864 113.986 393.912 114.43 390.44C114.949 386.403 114.015 384.007 115.609 383.384C117.203 382.761 119.269 384.912 120.212 388.186C121.146 391.468 120.618 394.629 119.024 395.251Z" fill="black"/>
<path d="M62.351 115.708C62.8702 120.183 63.6418 124.625 64.662 129.013C65.6504 133.365 67.023 137.621 68.7636 141.731C69.6155 143.776 70.6216 145.754 71.7734 147.646C72.8974 149.548 74.1921 151.343 75.6414 153.01C77.1065 154.67 78.74 156.174 80.5157 157.497C82.3497 158.791 84.3107 159.896 86.3685 160.793C84.1439 160.248 82.0046 159.4 80.0106 158.273C78.0261 157.085 76.1969 155.654 74.5653 154.014C71.3595 150.67 68.8048 146.758 67.0323 142.478C65.2495 138.252 63.9715 133.83 63.2247 129.305C62.4266 124.819 62.1336 120.259 62.351 115.708Z" fill="black"/>
<path d="M57.0845 145.981C58.5169 150.067 60.2175 154.053 62.1751 157.915C63.1709 159.822 64.1973 161.707 65.3503 163.51C66.4668 165.329 67.7033 167.071 69.0517 168.726C71.6647 172.075 74.8418 174.943 78.4402 177.201C80.2677 178.289 82.2051 179.18 84.2201 179.86C86.2783 180.515 88.3944 180.972 90.5395 181.224C88.3411 181.357 86.1348 181.199 83.9779 180.754C81.8041 180.266 79.7012 179.503 77.7195 178.485C75.7498 177.431 73.899 176.168 72.1991 174.718C70.5246 173.25 68.98 171.641 67.5825 169.908C64.842 166.435 62.5773 162.612 60.8483 158.54C59.0803 154.525 57.8161 150.307 57.0845 145.981Z" fill="black"/>
<path d="M19.7943 334.748C18.4317 339.042 17.3126 343.409 16.4426 347.829C15.5581 352.204 15.0634 356.648 14.9645 361.11C14.9022 363.325 15.0084 365.541 15.2821 367.739C15.527 369.935 15.971 372.103 16.6088 374.217C17.2635 376.333 18.1361 378.374 19.2126 380.31C20.3539 382.243 21.6891 384.054 23.1976 385.717C21.3925 384.307 19.7895 382.656 18.4333 380.811C17.1113 378.912 16.0303 376.857 15.2152 374.692C13.6638 370.327 12.9395 365.711 13.0792 361.081C13.1875 356.495 13.8363 351.939 15.0121 347.505C16.1247 343.088 17.7288 338.809 19.7943 334.748Z" fill="black"/>
<path d="M2.56981 360.194C2.19965 364.507 2.11466 368.841 2.31543 373.166C2.44106 375.313 2.60344 377.454 2.9151 379.571C3.18697 381.688 3.59969 383.784 4.15053 385.846C5.15922 389.973 6.8797 393.892 9.23468 397.427C10.4549 399.169 11.856 400.777 13.4144 402.224C15.0227 403.666 16.765 404.951 18.6178 406.061C16.5583 405.28 14.6111 404.231 12.8267 402.94C11.0448 401.603 9.43993 400.044 8.05072 398.302C6.68698 396.533 5.51741 394.622 4.56215 392.602C3.63723 390.577 2.88899 388.475 2.32579 386.321C1.25164 382.03 0.754987 377.614 0.848997 373.191C0.884135 368.804 1.46214 364.439 2.56981 360.194Z" fill="black"/>
<path d="M242.652 217.36C242.843 221.912 242.523 226.47 241.698 230.951C240.925 235.472 239.621 239.886 237.814 244.101C236.016 248.371 233.439 252.268 230.213 255.593C228.572 257.223 226.734 258.643 224.743 259.82C222.742 260.935 220.598 261.771 218.37 262.302C220.434 261.417 222.401 260.325 224.242 259.041C226.026 257.728 227.668 256.234 229.143 254.582C230.602 252.924 231.907 251.136 233.042 249.242C234.205 247.356 235.223 245.384 236.087 243.344C237.851 239.245 239.249 234.997 240.263 230.651C241.309 226.269 242.106 221.832 242.652 217.36Z" fill="black"/>
<path d="M247.741 247.663C246.984 251.984 245.695 256.195 243.903 260.199C242.15 264.261 239.863 268.071 237.103 271.527C235.695 273.252 234.141 274.853 232.458 276.311C230.75 277.75 228.891 279.002 226.915 280.045C224.928 281.052 222.821 281.802 220.644 282.278C218.484 282.71 216.277 282.855 214.08 282.709C216.226 282.469 218.345 282.025 220.407 281.382C222.426 280.714 224.369 279.834 226.202 278.757C229.814 276.52 233.008 273.671 235.64 270.337C236.998 268.691 238.245 266.956 239.372 265.143C240.536 263.347 241.573 261.468 242.58 259.567C244.561 255.717 246.284 251.74 247.741 247.663Z" fill="black"/>
<path d="M62.8451 38.9994C62.8536 38.7944 62.8202 38.5899 62.747 38.3982C62.6739 38.2066 62.5624 38.0318 62.4195 37.8847L56.6931 32.4997C56.2541 32.1308 55.6948 32.3112 55.4103 32.8982C55.2712 33.1935 55.2186 33.5222 55.2584 33.8462C55.2983 34.1702 55.4291 34.4763 55.6356 34.7292L60.1689 38.9994L55.6356 43.2698C55.3615 43.5764 55.21 43.9732 55.21 44.3845C55.21 44.7957 55.3615 45.1926 55.6356 45.4991L60.1689 49.7695L55.6356 54.0398C55.3615 54.3464 55.21 54.7433 55.21 55.1545C55.21 55.5658 55.3615 55.9627 55.6356 56.2693L61.362 61.6542C61.801 62.0635 62.3908 61.8965 62.681 61.2854C62.8268 60.9843 62.8798 60.6466 62.8332 60.3154C62.7866 59.9841 62.6426 59.6741 62.4195 59.4249L57.886 55.1545L62.4195 50.8842C62.6936 50.5776 62.8451 50.1808 62.8451 49.7695C62.8451 49.3583 62.6936 48.9614 62.4195 48.6548L57.886 44.3844L62.4195 40.1142C62.5624 39.967 62.6739 39.7923 62.7471 39.6006C62.8202 39.4089 62.8536 39.2044 62.8451 38.9994L62.8451 38.9994Z" fill="black"/>
<path d="M28.7221 272.328C28.7069 272.717 28.8279 273.1 29.0643 273.41L32.7083 277.557L29.0643 281.703C28.8905 281.964 28.7822 282.263 28.7488 282.574C28.7154 282.885 28.7578 283.2 28.8725 283.492C29.0996 284.072 29.5614 284.247 29.9143 283.868L34.5173 278.639C34.74 278.322 34.8595 277.944 34.8595 277.557C34.8595 277.169 34.74 276.791 34.5173 276.474L30.8733 272.328L34.5173 268.181C34.74 267.864 34.8595 267.486 34.8595 267.099C34.8595 266.711 34.74 266.333 34.5173 266.016L30.8733 261.87L34.5173 257.723C34.6911 257.463 34.7993 257.164 34.8327 256.853C34.8661 256.541 34.8237 256.226 34.7091 255.935C34.482 255.354 34.0202 255.179 33.6673 255.558L29.0643 260.787C28.8416 261.104 28.7221 261.482 28.7221 261.87C28.7221 262.257 28.8416 262.635 29.0643 262.952L32.7083 267.099L29.0643 271.245C28.8253 271.554 28.704 271.938 28.7221 272.328Z" fill="black"/>
<path d="M7.02447 115.66C7.00929 116.05 7.13029 116.433 7.36667 116.743L11.0107 120.889L7.36667 125.036C7.19285 125.296 7.08461 125.595 7.05121 125.906C7.0178 126.218 7.06021 126.533 7.17482 126.824C7.40192 127.405 7.86374 127.58 8.21666 127.201L12.8197 121.972C13.0424 121.655 13.1618 121.277 13.1618 120.889C13.1618 120.502 13.0424 120.124 12.8197 119.807L9.17566 115.66L12.8197 111.514C13.0424 111.197 13.1619 110.819 13.1619 110.431C13.1619 110.044 13.0424 109.666 12.8197 109.349L9.17566 105.202L12.8197 101.056C12.9935 100.795 13.1017 100.496 13.1351 100.185C13.1685 99.8736 13.1261 99.5588 13.0115 99.2673C12.7844 98.6869 12.3226 98.5117 11.9697 98.8908L7.36667 104.12C7.14397 104.437 7.02447 104.815 7.02447 105.202C7.02447 105.59 7.14397 105.968 7.36667 106.285L11.0107 110.431L7.36667 114.578C7.12767 114.887 7.00637 115.27 7.02447 115.66Z" fill="black"/>
<path d="M268.954 321.907C268.939 322.318 269.085 322.717 269.36 323.022L273.686 327.292L269.36 331.563C269.156 331.819 269.027 332.126 268.986 332.451C268.946 332.776 268.997 333.106 269.132 333.404C269.402 334.002 269.95 334.183 270.369 333.792L275.834 328.407C276.096 328.095 276.24 327.7 276.24 327.292C276.24 326.885 276.096 326.49 275.834 326.178L271.508 321.907L275.834 317.637C276.096 317.325 276.24 316.93 276.24 316.522C276.24 316.115 276.096 315.72 275.834 315.408L271.508 311.137L275.834 306.867C276.038 306.611 276.167 306.303 276.207 305.978C276.247 305.653 276.197 305.323 276.062 305.025C275.792 304.428 275.244 304.247 274.825 304.638L269.36 310.023C269.097 310.335 268.954 310.729 268.954 311.137C268.954 311.545 269.097 311.94 269.36 312.252L273.686 316.522L269.36 320.793C269.222 320.943 269.116 321.118 269.046 321.31C268.976 321.501 268.945 321.704 268.954 321.907Z" fill="black"/>
<path d="M283.976 153.641L280.577 156.711C279.739 157.595 279.272 158.767 279.272 159.986C279.272 161.204 279.739 162.376 280.577 163.261L281.556 164.155C281.833 164.449 281.987 164.838 281.987 165.243C281.987 165.647 281.833 166.036 281.556 166.331L280.577 167.225C279.739 168.109 279.272 169.281 279.272 170.5C279.272 171.718 279.739 172.891 280.577 173.775L281.556 174.669C281.833 174.963 281.987 175.352 281.987 175.757C281.987 176.161 281.833 176.55 281.556 176.845L280.577 177.739C279.739 178.623 279.272 179.795 279.272 181.014C279.272 182.232 279.739 183.405 280.577 184.289L281.556 185.183C281.833 185.477 281.987 185.867 281.987 186.271C281.987 186.675 281.833 187.065 281.556 187.359L278.15 190.44C277.934 190.681 277.796 190.981 277.752 191.301C277.709 191.622 277.763 191.948 277.907 192.238C277.949 192.367 278.021 192.483 278.119 192.578C278.216 192.672 278.335 192.741 278.465 192.778C278.596 192.815 278.733 192.82 278.866 192.792C278.998 192.764 279.122 192.703 279.226 192.616L282.624 189.546C283.462 188.662 283.93 187.489 283.93 186.271C283.93 185.053 283.462 183.88 282.624 182.996L281.645 182.102C281.503 181.96 281.392 181.79 281.319 181.603C281.246 181.415 281.213 181.215 281.222 181.014C281.213 180.812 281.246 180.611 281.32 180.423C281.395 180.236 281.508 180.066 281.653 179.926L282.632 179.032C283.466 178.145 283.93 176.974 283.93 175.757C283.93 174.54 283.466 173.369 282.632 172.482L281.653 171.588C281.376 171.293 281.222 170.904 281.222 170.5C281.222 170.096 281.376 169.706 281.653 169.412L282.632 168.518C283.466 167.631 283.93 166.46 283.93 165.243C283.93 164.026 283.466 162.855 282.632 161.968L281.653 161.074C281.376 160.779 281.222 160.39 281.222 159.986C281.222 159.581 281.376 159.192 281.653 158.898L285.052 155.817C285.278 155.578 285.425 155.276 285.473 154.952C285.522 154.627 285.471 154.295 285.326 154.001C285.284 153.868 285.209 153.748 285.109 153.651C285.008 153.555 284.885 153.486 284.75 153.45C284.615 153.414 284.474 153.413 284.339 153.446C284.203 153.479 284.079 153.546 283.976 153.641V153.641Z" fill="black"/>
<path d="M243.919 38.0577L240.328 34.9021C240.037 34.6042 239.874 34.2041 239.874 33.7875C239.874 33.3708 240.037 32.9707 240.328 32.6728L241.36 31.7573C242.242 30.8631 242.736 29.658 242.736 28.4024C242.736 27.1468 242.242 25.9417 241.36 25.0475L240.328 24.1322C240.037 23.8342 239.874 23.4341 239.874 23.0175C239.874 22.6008 240.037 22.2007 240.328 21.9027L241.36 20.9872C242.242 20.0931 242.736 18.888 242.736 17.6324C242.736 16.3768 242.242 15.1717 241.36 14.2775L240.328 13.3621C240.037 13.0642 239.874 12.664 239.874 12.2473C239.874 11.8307 240.037 11.4305 240.328 11.1326L241.36 10.2172C242.242 9.32309 242.736 8.11795 242.736 6.86236C242.736 5.60677 242.242 4.40163 241.36 3.50749L237.778 0.362626C237.668 0.272986 237.539 0.211006 237.4 0.18192C237.262 0.152834 237.118 0.157493 236.982 0.195508C236.846 0.233523 236.72 0.303779 236.617 0.400338C236.514 0.496897 236.435 0.616926 236.388 0.750295C236.236 1.04645 236.179 1.38201 236.225 1.71146C236.271 2.04091 236.417 2.3483 236.643 2.59195L240.234 5.74765C240.526 6.04554 240.689 6.44567 240.689 6.86236C240.689 7.27905 240.526 7.67917 240.234 7.97706L239.202 8.89242C238.321 9.78654 237.827 10.9917 237.827 12.2473C237.827 13.503 238.321 14.7081 239.202 15.6023L240.234 16.5177C240.526 16.8156 240.689 17.2157 240.689 17.6324C240.689 18.0491 240.526 18.4492 240.234 18.747L239.202 19.6626C238.321 20.5567 237.827 21.7618 237.827 23.0174C237.827 24.2731 238.321 25.4782 239.202 26.3723L240.234 27.2877C240.526 27.5856 240.689 27.9857 240.689 28.4024C240.689 28.8191 240.526 29.2193 240.234 29.5172L239.202 30.4326C238.321 31.3267 237.827 32.5319 237.827 33.7875C237.827 35.0431 238.321 36.2482 239.202 37.1423L242.785 40.2872C242.894 40.3819 243.024 40.4487 243.164 40.4817C243.304 40.5146 243.45 40.5129 243.59 40.4765C243.729 40.4402 243.858 40.3703 243.964 40.2731C244.07 40.1758 244.151 40.054 244.2 39.9184C244.355 39.6184 244.412 39.2767 244.362 38.9425C244.311 38.6082 244.157 38.2985 243.919 38.0577H243.919Z" fill="black"/>
<path d="M176.642 18.9155C176.715 19.9942 176.461 21.07 175.915 22.0028C175.368 22.9357 174.553 23.6825 173.577 24.1462C172.6 24.6099 171.506 24.7691 170.438 24.603C169.369 24.4369 168.376 23.9532 167.586 23.2148C166.796 22.4765 166.246 21.5176 166.009 20.4628C165.771 19.408 165.856 18.3061 166.253 17.3003C166.65 16.2945 167.34 15.4314 168.234 14.8231C169.128 14.2149 170.184 13.8896 171.266 13.8896C172.644 13.8459 173.984 14.3502 174.992 15.2922C175.999 16.2341 176.593 17.537 176.642 18.9155Z" fill="black"/>
<path d="M239.179 358.163C239.253 359.246 238.998 360.325 238.45 361.261C237.901 362.196 237.084 362.946 236.104 363.411C235.124 363.876 234.027 364.036 232.955 363.869C231.884 363.702 230.887 363.217 230.094 362.476C229.302 361.736 228.751 360.774 228.512 359.716C228.274 358.657 228.359 357.552 228.757 356.543C229.156 355.534 229.848 354.668 230.745 354.058C231.642 353.448 232.701 353.122 233.786 353.122C235.169 353.078 236.513 353.584 237.524 354.529C238.535 355.474 239.13 356.78 239.179 358.163Z" fill="black"/>
<path d="M300.396 102.288C300.455 103.155 300.251 104.02 299.812 104.77C299.372 105.519 298.718 106.119 297.933 106.492C297.148 106.865 296.269 106.993 295.411 106.859C294.552 106.726 293.753 106.337 293.119 105.744C292.484 105.15 292.042 104.38 291.851 103.532C291.66 102.684 291.729 101.799 292.048 100.991C292.367 100.182 292.921 99.4887 293.64 98.9999C294.358 98.5111 295.207 98.2497 296.076 98.2497C297.184 98.214 298.261 98.6191 299.071 99.3762C299.881 100.133 300.357 101.181 300.396 102.288Z" fill="black"/>
<path d="M104.486 282.41C104.545 283.277 104.341 284.141 103.902 284.891C103.462 285.64 102.808 286.24 102.023 286.613C101.238 286.986 100.359 287.114 99.5005 286.98C98.6419 286.847 97.8433 286.458 97.2085 285.865C96.5738 285.271 96.1322 284.501 95.9412 283.653C95.7502 282.805 95.8187 281.92 96.1376 281.112C96.4566 280.303 97.0113 279.61 97.7296 279.121C98.448 278.632 99.2968 278.371 100.166 278.371C101.274 278.335 102.351 278.74 103.161 279.497C103.971 280.254 104.447 281.302 104.486 282.41Z" fill="black"/>
<path d="M151.083 98.3761C154.725 98.3761 154.731 92.7161 151.083 92.7161C147.441 92.7161 147.435 98.3761 151.083 98.3761Z" fill="black"/>
<path d="M49.1549 195.648C52.7969 195.648 52.8029 189.988 49.1549 189.988C45.5129 189.988 45.5069 195.648 49.1549 195.648Z" fill="black"/>
<path d="M268.954 268.016C272.596 268.016 272.602 262.356 268.954 262.356C265.312 262.356 265.306 268.016 268.954 268.016Z" fill="black"/>
<path d="M224.31 175.962C227.952 175.962 227.958 170.302 224.31 170.302C220.668 170.302 220.662 175.962 224.31 175.962Z" fill="black"/>
</svg>
